<?xml version="1.0" encoding="UTF-8" standalone="no"?>
<svg
   version="1.1"
   id="Layer_1"
   x="0px"
   y="0px"
   width="100%"
   viewBox="0 0 800 800"
   enable-background="new 0 0 800 800"
   xml:space="preserve"
   sodipodi:docname="just_logo.svg"
   inkscape:version="1.3.2 (091e20e, 2023-11-25, custom)"
   xmlns:inkscape="http://www.inkscape.org/namespaces/inkscape"
   xmlns:sodipodi="http://sodipodi.sourceforge.net/DTD/sodipodi-0.dtd"
   xmlns="http://www.w3.org/2000/svg"
   xmlns:svg="http://www.w3.org/2000/svg"><defs
   id="defs34" /><sodipodi:namedview
   id="namedview34"
   pagecolor="#505050"
   bordercolor="#eeeeee"
   borderopacity="1"
   inkscape:showpageshadow="0"
   inkscape:pageopacity="0"
   inkscape:pagecheckerboard="0"
   inkscape:deskcolor="#505050"
   inkscape:zoom="0.99375"
   inkscape:cx="363.27044"
   inkscape:cy="403.01887"
   inkscape:window-width="1920"
   inkscape:window-height="1051"
   inkscape:window-x="-9"
   inkscape:window-y="-9"
   inkscape:window-maximized="1"
   inkscape:current-layer="Layer_1" />

<path
   fill="#FB9924"
   opacity="1"
   stroke="none"
   d="m 303.16122,477.07956 c -1.49089,-1.7269 -3.45356,-3.39163 -3.46119,-5.06527 -0.16318,-35.82807 -0.36474,-71.65992 0.0269,-107.48465 0.1677,-15.34156 15.25663,-29.0835 31.45407,-29.15427 43.82718,-0.19144 87.65591,-0.12964 131.48364,-0.0178 10.13725,0.0259 17.76904,7.18967 17.82173,17.13937 0.20999,39.66031 0.1046,79.32227 0.13542,118.98361 0.003,3.96354 -1.89226,5.82059 -5.84039,5.71405 -2.3021,-0.0621 -4.60726,-0.0113 -7.17318,-0.0113 -0.15573,1.14405 -0.33348,1.91889 -0.35634,2.69821 -0.30204,10.30234 -0.2966,10.3028 -10.36752,10.30301 -12.33183,2.8e-4 -24.66368,0.005 -36.99551,-0.002 -8.00333,-0.004 -8.37869,-0.38851 -8.44892,-8.51797 -0.0112,-1.29547 -0.002,-2.59113 -0.002,-4.18164 -14.50392,0 -28.57365,0 -42.69112,0 -0.18267,0.58997 -0.46067,1.04819 -0.44302,1.49478 0.4954,12.53302 -1.8357,11.20651 -12.00438,11.20654 -11.83191,0 -23.6638,0.005 -35.4957,-0.002 -7.82734,-0.005 -8.31222,-0.48181 -8.3643,-8.10892 -0.01,-1.45636 -0.001,-2.91287 -0.001,-4.93606 -3.2693,0 -6.05387,0 -9.27716,-0.058 m 48.03511,-65.81698 c -0.32078,-0.88932 -0.56395,-2.51148 -0.97432,-2.55493 -4.23596,-0.44858 -5.00521,-3.92582 -6.31906,-6.91083 -1.13843,-2.58646 -2.02065,-5.29672 -3.31104,-7.80026 -0.59003,-1.14475 -1.74033,-2.43647 -2.89477,-2.77143 -3.23942,-0.93982 -3.99006,-3.138 -3.95632,-6.06482 0.0413,-3.58038 0.01,-7.16162 0.01,-10.69046 -9.03517,0 -17.28825,0 -25.76449,0 0,31.38025 0,62.46622 0,93.93045 45.87597,0 91.57737,0 137.27248,0 0,-31.49084 0,-62.71716 0,-94.02026 -17.11691,0 -33.89084,0 -51.25674,0 0,3.64831 0.1663,7.1152 -0.0702,10.55438 -0.11815,1.71817 -0.60593,4.59458 -1.55261,4.88153 -6.50463,1.97153 -6.10834,8.38428 -8.86743,12.72492 -1.62998,2.56433 -3.71795,4.83749 -5.59997,7.2416 -0.52028,-0.27825 -1.04056,-0.55651 -1.56085,-0.83477 2.40491,8.02423 -2.36707,13.4172 -6.0175,19.37768 -1.64358,2.68366 -1.98261,6.16629 -3.05426,9.75791 2.73907,0.11993 4.05363,0.22656 5.36826,0.2276 15.82689,0.0125 31.65461,-0.0873 47.48028,0.0514 7.87346,0.069 12.62781,4.54156 12.4979,11.20029 -0.12491,6.40396 -4.95421,10.4515 -12.62146,10.45623 -30.48758,0.0187 -60.97516,0.008 -91.46274,0.008 -0.6664,0 -1.33283,-0.007 -1.99918,-0.002 -3.07127,0.0243 -5.51002,-1.21192 -5.42096,-4.47251 0.0893,-3.26809 2.64665,-4.31625 5.6743,-4.23712 1.16539,0.0305 2.33226,0.003 3.49845,0.003 29.65458,-3.4e-4 59.30926,0.0271 88.96345,-0.0812 1.51068,-0.005 3.01709,-1.17841 4.52549,-1.8078 -1.53321,-0.75137 -3.0607,-2.14236 -4.60051,-2.15613 -17.32491,-0.15488 -34.65169,-0.0873 -51.97795,-0.10376 -6.5653,-0.006 -7.91639,-1.03778 -7.50007,-7.46191 0.38729,-5.97608 -0.87954,-11.12085 -4.82214,-15.62528 -2.99923,-3.42669 -4.35355,-7.39547 -3.68587,-12.81994 m 103.26946,3.40994 c 0,17.87894 0,35.7579 0,53.61636 6.15649,0 11.42583,0 16.84115,0 0.16686,-0.85577 0.39577,-1.48291 0.39617,-2.11017 0.0235,-37.78036 0.086,-75.56103 -0.10584,-113.34039 -0.0117,-2.30932 -1.46986,-5.61658 -3.28854,-6.66281 -2.39529,-1.37787 -6.017,-1.8027 -8.74446,-1.13605 -3.69949,0.90424 -5.12634,4.3111 -5.11783,8.21765 0.0439,20.1384 0.0197,40.27692 0.0194,61.41541 m -88.36212,-61.89813 c 5.32816,6e-5 10.65632,0.006 15.98448,-0.001 12.35483,-0.0176 11.76034,-0.91214 12.35731,11.40243 0.0126,0.25974 0.34801,0.50388 0.60151,0.8487 16.6631,0 33.39202,0 50.09062,0 0.52287,-7.09867 1.02447,-13.90863 1.53097,-20.78485 -0.0398,-0.01 -0.35861,-0.15668 -0.6775,-0.15686 -38.12941,-0.0206 -76.25958,-0.14017 -114.38717,0.11834 -4.10546,0.0278 -8.6043,1.54615 -12.20352,3.61853 -6.36094,3.66263 -10.36233,9.34961 -10.86182,17.18549 8.64214,0 16.72223,0 25.20879,0 0,-1.77304 -0.011,-3.23798 0.002,-4.7027 0.06,-6.80643 0.73622,-7.50943 7.37758,-7.52374 7.99225,-0.0172 15.98456,-0.004 24.97687,-0.004 m 10.93831,8.39734 c -11.40357,0 -22.80714,0 -34.2216,0 0,7.47595 0,14.33682 0,21.14636 14.36658,0 28.36124,0 42.34449,0 0,-7.21396 0,-13.95593 0,-21.14636 -2.57265,0 -4.85987,0 -8.12289,0 m -10.02699,38.85275 c 9.25398,0 9.25398,0 11.25832,-8.54627 -9.55143,0 -19.06807,0 -28.64585,0 1.8036,8.54606 1.8036,8.54609 9.91993,8.54627 2.16596,6e-5 4.33192,-6e-5 7.4676,0 m 88.81281,81.28235 c 1.05509,-0.92047 2.11017,-1.84091 3.16526,-2.76136 -0.30613,-0.34274 -0.61226,-0.68548 -0.91839,-1.02822 -12.68528,0 -25.37055,0 -38.05584,0 -0.22164,0.55047 -0.44327,1.10092 -0.6649,1.65139 1.38485,0.71375 2.75975,2.02295 4.15614,2.04627 10.45236,0.17459 20.90898,0.0952 32.31773,0.0919 m -119.71959,-4.12476 c -4.94232,0 -9.88463,0 -14.82695,0 -0.30418,0.47986 -0.60836,0.95975 -0.91255,1.43961 1.09978,0.8948 2.18605,2.54712 3.30142,2.56701 10.94335,0.19513 21.89191,0.0686 32.83812,0.15018 3.17217,0.0236 3.51708,-1.37079 2.60169,-4.1568 -7.45013,0 -14.72695,0 -23.00173,0 m 32.09397,-66.33624 c -1.82036,-5.22159 -5.50264,-1.51239 -9.95354,-2.66913 1.80962,5.35657 3.17585,9.40067 4.54208,13.44476 0.83063,-0.0285 1.66125,-0.0569 2.49188,-0.0854 0.97539,-3.28851 1.95079,-6.57699 2.91958,-10.69021 z"
   id="path2"
   style="fill:#e23124;fill-opacity:1" />







<path
   fill="#FB9924"
   opacity="1"
   stroke="none"
   d="m 454.18422,316.71149 c -6.86196,6.15933 -13.89383,7.34692 -20.80635,3.74255 -6.26013,-3.26422 -9.89084,-10.01764 -9.08805,-16.90466 0.85834,-7.3634 5.6827,-12.95218 12.83553,-14.8692 6.82933,-1.83029 14.29756,0.99765 18.37903,6.95941 4.43324,6.47559 4.0757,13.37186 -1.32016,21.0719 m -19.57308,-6.18155 c 2.67156,3.04862 6.12946,4.64194 9.69132,2.52338 2.28111,-1.35678 4.43176,-4.01721 5.22165,-6.53797 1.1316,-3.61129 -0.56034,-7.49771 -4.26447,-8.44204 -2.95573,-0.7536 -7.0728,-0.41855 -9.53807,1.18268 -3.70151,2.40423 -3.85347,6.67178 -1.11043,11.27395 z"
   id="path10"
   style="fill:#e23124;fill-opacity:1" />
<path
   fill="#FB9924"
   opacity="1"
   stroke="none"
   d="m 312.61722,311.11216 c 3.25602,-8.05542 9.16173,-11.50977 15.92089,-9.65207 6.21996,1.7095 10.25158,7.72543 9.38398,14.00265 -0.97401,7.04703 -7.19254,12.0567 -13.98883,11.26944 -7.62833,-0.8836 -11.896,-6.60828 -11.31604,-15.62002 m 8.42538,1.80734 c -0.24634,3.16089 1.14118,5.31305 4.35093,5.03183 1.38056,-0.12097 3.37632,-1.79917 3.68835,-3.10532 0.30719,-1.28592 -1.0914,-4.23138 -1.86718,-4.27624 -1.90808,-0.11039 -3.88839,1.0278 -6.1721,2.34973 z"
   id="path11"
   style="fill:#e23124;fill-opacity:1" />

<path
   fill="#FB9D2D"
   opacity="1"
   stroke="none"
   d="m 347.59056,325.01648 c -1.62131,-3.01794 -0.91184,-5.42489 1.82016,-6.27575 1.42747,-0.44455 3.95311,0.40185 4.96004,1.55682 0.79075,0.90701 0.42183,4.43799 -0.1433,4.62238 -1.97516,0.64419 -4.25881,0.34265 -6.6369,0.0965 z"
   id="path13"
   style="fill:#e23124;fill-opacity:1" />
<path
   fill="#FB9D2D"
   opacity="1"
   stroke="none"
   d="m 481.89387,318.64365 c 3.06874,2.49481 3.25666,5.33524 0.3978,7.14172 -1.23132,0.77808 -4.65796,-0.0559 -5.76025,-1.3172 -2.41597,-2.76449 0.30119,-5.8739 5.36245,-5.82452 z"
   id="path14"
   style="fill:#e23124;fill-opacity:1" />
<path
   fill="#FB9D2D"
   opacity="1"
   stroke="none"
   d="m 364.24058,303.71952 c 2.44584,-3.33426 5.28108,-3.76249 7.2864,-0.60306 0.77127,1.21518 -0.0459,4.58887 -1.2852,5.694 -2.70738,2.41428 -5.796,-0.0943 -6.0012,-5.09094 z"
   id="path15"
   style="fill:#e23124;fill-opacity:1" />
<path
   fill="#FB9924"
   opacity="1"
   stroke="none"
   d="m 399.74055,315.30564 c 2.20082,-0.12589 4.45871,-0.50891 5.90158,0.40078 0.81556,0.51416 0.86988,3.46219 0.18868,4.73829 -0.5509,1.03207 -2.90953,1.93948 -4.1254,1.617 -3.48353,-0.92389 -4.10147,-3.40186 -1.96486,-6.75607 z"
   id="path16"
   style="fill:#e23124;fill-opacity:1" />












<path
   fill="#FB9924"
   opacity="1"
   stroke="none"
   d="m 411.45067,425.03415 c 4.5e-4,-6.80871 0.10638,-13.13669 -0.0363,-19.45904 -0.0922,-4.08734 1.70828,-5.7912 5.71283,-5.57883 2.49,0.13202 4.99412,-0.0295 7.48925,0.0383 9.06572,0.24631 16.4451,7.53159 16.7734,16.51291 0.32922,9.00629 -7.06205,17.00015 -16.29702,17.57846 -1.65855,0.10388 -3.3278,0.0474 -4.99211,0.0477 -8.60653,0.001 -8.64128,-0.0355 -8.65008,-9.13947 m 20.76301,-5.16436 c 1.08605,-8.48246 -3.26791,-12.49888 -12.07191,-10.98465 0,5.4826 0,10.98315 0,16.76129 5.04217,0.19619 9.32248,-0.19913 12.07191,-5.77664 z"
   id="path29"
   style="fill:#e23124;fill-opacity:1" />
<path
   fill="#FB9924"
   opacity="1"
   stroke="none"
   d="m 390.3401,425.64078 c 0.75357,-0.0519 1.10338,0.004 1.41522,-0.0805 2.08478,-0.56437 4.16149,-1.15863 6.24079,-1.74326 -1.82656,-0.88538 -3.82144,-1.54178 -5.42975,-2.72403 -1.44783,-1.06436 -3.41104,-2.70276 -3.41481,-4.09268 -0.004,-1.35193 2.02867,-2.92685 3.46542,-4.0069 1.58246,-1.18966 3.50492,-1.92709 5.27925,-2.86154 -2.06134,-0.60245 -4.09304,-1.54224 -6.19111,-1.7265 -2.98813,-0.26245 -6.01213,-0.34946 -6.03836,-4.23456 -0.0264,-3.90802 2.9387,-4.30197 5.98668,-4.14209 2.80427,0.147 5.75474,-0.12836 8.37498,0.66275 5.20956,1.57291 7.68167,7.28049 6.48486,12.98618 -0.43682,2.08249 -0.51739,4.43136 -0.0254,6.48239 1.72039,7.17221 -2.75319,13.5419 -10.16388,13.99182 -1.82147,0.11059 -3.81625,0.47552 -5.44145,-0.098 -1.91362,-0.67523 -4.45286,-1.89826 -5.04208,-3.50095 -1.07743,-2.93057 1.22931,-4.45236 4.49966,-4.91217 z"
   id="path30"
   style="fill:#e23124;fill-opacity:1" />
<path
   fill="#FB9D2D"
   opacity="1"
   stroke="none"
   d="m 328.10374,439.78055 c 2.06462,2.76526 1.82701,5.21768 -0.89376,6.52439 -1.28289,0.61615 -3.83699,0.29034 -4.81623,-0.64945 -0.96361,-0.92477 -1.343,-3.45962 -0.77778,-4.76984 1.21596,-2.8186 3.6792,-2.98925 6.48777,-1.1051 z"
   id="path31"
   style="fill:#e23124;fill-opacity:1" />
<path
   fill="#FB9D2D"
   opacity="1"
   stroke="none"
   d="m 339.87231,421.81437 c 3.10225,2.41857 3.55234,5.18194 0.49247,7.02572 -1.27804,0.77011 -4.04474,-0.34817 -5.7918,-1.26266 -0.58995,-0.30881 -0.7027,-3.28327 -0.0137,-3.89984 1.26005,-1.1276 3.27961,-1.40644 5.31302,-1.86322 z"
   id="path32"
   style="fill:#e23124;fill-opacity:1" />
<path
   fill="#FB9D2D"
   opacity="1"
   stroke="none"
   d="m 322.7612,404.6987 c 0.70852,2.2085 1.70744,4.38233 1.22652,6.15454 -0.2269,0.83613 -3.54333,1.60679 -4.99143,1.09128 -1.13559,-0.40426 -2.32001,-2.93808 -2.12629,-4.33813 0.40417,-2.92102 2.66353,-3.93711 5.8912,-2.90769 z"
   id="path33"
   style="fill:#e23124;fill-opacity:1" />

</svg>
