<?xml version="1.0" encoding="UTF-8" standalone="no"?>
<svg
   version="1.1"
   id="Layer_1"
   x="0px"
   y="0px"
   width="735"
   viewBox="0 0 735 800"
   enable-background="new 0 0 800 800"
   xml:space="preserve"
   sodipodi:docname="just_logo.svg"
   inkscape:version="1.3.2 (091e20e, 2023-11-25, custom)"
   height="800"
   xmlns:inkscape="http://www.inkscape.org/namespaces/inkscape"
   xmlns:sodipodi="http://sodipodi.sourceforge.net/DTD/sodipodi-0.dtd"
   xmlns="http://www.w3.org/2000/svg"
   xmlns:svg="http://www.w3.org/2000/svg"><defs
   id="defs34" /><sodipodi:namedview
   id="namedview34"
   pagecolor="#505050"
   bordercolor="#eeeeee"
   borderopacity="1"
   inkscape:showpageshadow="0"
   inkscape:pageopacity="0"
   inkscape:pagecheckerboard="0"
   inkscape:deskcolor="#505050"
   inkscape:zoom="0.99375"
   inkscape:cx="363.27044"
   inkscape:cy="402.01258"
   inkscape:window-width="1920"
   inkscape:window-height="1051"
   inkscape:window-x="-9"
   inkscape:window-y="-9"
   inkscape:window-maximized="1"
   inkscape:current-layer="Layer_1"
   showguides="true"><sodipodi:guide
     position="780.8805,836.2327"
     orientation="0,-1"
     id="guide1"
     inkscape:locked="false" /></sodipodi:namedview>

<path
   fill="#FB9924"
   opacity="1"
   stroke="none"
   d="M 14.490877,747.96501 C 8.5891571,741.12904 0.81990149,734.53919 0.78969449,727.91405 0.14375449,586.08809 -0.65413351,444.24718 0.89609549,302.43444 1.5599375,241.70464 61.289711,187.30696 125.40751,187.02682 c 173.49057,-0.75782 346.98725,-0.51318 520.47999,-0.0705 40.12847,0.10249 70.33902,28.46041 70.54759,67.84646 0.83126,156.99594 0.41406,313.99841 0.53606,470.99843 0.0114,15.68974 -7.49054,23.04088 -23.11926,22.61915 -9.1129,-0.24583 -18.23791,-0.0447 -28.39515,-0.0447 -0.61646,4.52874 -1.32008,7.59595 -1.41057,10.68091 -1.19563,40.78198 -1.17411,40.78379 -41.03999,40.78462 -48.81573,10e-4 -97.63155,0.0197 -146.44728,-0.008 -31.68132,-0.0163 -33.16719,-1.53792 -33.44518,-33.71851 -0.0444,-5.12814 -0.008,-10.25703 -0.008,-16.5531 -57.41399,0 -113.10923,0 -168.99345,0 -0.72309,2.33542 -1.82355,4.14929 -1.75369,5.91713 1.96104,49.61214 -7.26665,44.36114 -47.51953,44.36125 -46.83679,0 -93.67351,0.0197 -140.510269,-0.008 -30.984643,-0.0197 -32.904041,-1.90725 -33.110199,-32.09928 -0.03965,-5.76503 -0.0033,-11.53065 -0.0033,-19.53947 -12.941563,0 -23.964332,0 -36.723775,-0.22959 M 204.63871,487.42627 c -1.26982,-3.5204 -2.23241,-9.94173 -3.85686,-10.11373 -16.76812,-1.77571 -19.81321,-15.54043 -25.01411,-27.35663 -4.50649,-10.23854 -7.99876,-20.96716 -13.10679,-30.87746 -2.33565,-4.5315 -6.88912,-9.6448 -11.45899,-10.97074 -12.8233,-3.72029 -15.79472,-12.42182 -15.66115,-24.00767 0.16348,-14.173 0.0395,-28.3494 0.0395,-42.31836 -35.765853,0 -68.435789,0 -101.989114,0 0,124.21919 0,247.27348 0,371.82511 181.600714,0 362.510414,0 543.395184,0 0,-124.65696 0,-248.26683 0,-372.18062 -67.75753,0 -134.15739,0 -202.90058,0 0,14.44189 0.65831,28.16562 -0.27788,41.77966 -0.4677,6.80141 -2.39859,18.18773 -6.14603,19.32362 -25.74868,7.80433 -24.17996,33.1893 -35.10186,50.37179 -6.45231,10.15094 -14.71756,19.14928 -22.16757,28.66598 -2.05953,-1.10145 -4.11906,-2.20296 -6.17864,-3.30444 9.51987,31.76404 -9.37009,53.11218 -23.82036,76.70684 -6.50615,10.62331 -7.8482,24.40935 -12.09035,38.62683 10.84266,0.47474 16.04636,0.89685 21.25034,0.90096 62.65098,0.0495 125.30526,-0.34559 187.95142,0.20347 31.1672,0.27313 49.98738,17.97783 49.47312,44.33651 -0.49445,25.35018 -19.61131,41.37242 -49.96223,41.39116 -120.68556,0.0741 -241.3711,0.0317 -362.05666,0.0317 -2.63794,0 -5.27602,-0.0277 -7.91378,-0.008 -12.157679,0.0961 -21.811509,-4.79741 -21.458949,-17.70449 0.35349,-12.9368 10.476796,-17.08595 22.461809,-16.77271 4.6132,0.12076 9.23227,0.0114 13.84865,0.0114 117.38812,-10e-4 234.77661,0.10722 352.16317,-0.32142 5.98005,-0.0197 11.9432,-4.66475 17.91422,-7.15621 -6.06923,-2.97431 -12.11581,-8.48056 -18.21118,-8.53508 -68.58093,-0.61309 -137.16925,-0.34557 -205.7555,-0.41073 -25.98884,-0.0237 -31.33715,-4.10806 -29.68915,-29.53807 1.53309,-23.65641 -3.48167,-44.02207 -19.08851,-61.85292 -11.8725,-13.5646 -17.23359,-29.27509 -14.59057,-50.74792 m 408.79372,13.4983 c 0,70.77405 0,141.54818 0,212.24117 24.37056,0 45.22933,0 66.66595,0 0.66052,-3.38757 1.56667,-5.87013 1.56825,-8.35314 0.093,-149.55414 0.34043,-299.10948 -0.41898,-448.65966 -0.0463,-9.14148 -5.81846,-22.23332 -13.01772,-26.37484 -9.48179,-5.45431 -23.81839,-7.13601 -34.61509,-4.49707 -14.64449,3.57945 -20.2927,17.06557 -20.259,32.5297 0.17377,79.71816 0.078,159.43679 0.0769,243.11384 M 263.65055,255.8984 c 21.0916,2.2e-4 42.1832,0.0237 63.2748,-0.003 48.90678,-0.0697 46.55349,-3.61072 48.91661,45.13669 0.0499,1.0282 1.3776,1.99463 2.38108,3.3596 65.96113,0 132.18282,0 198.28448,0 2.06979,-28.1002 4.05538,-55.05753 6.06037,-82.27715 -0.15748,-0.0395 -1.41956,-0.62022 -2.68189,-0.62092 -150.93586,-0.0816 -301.8747,-0.55487 -452.80335,0.46843 -16.25154,0.10999 -34.060259,6.12047 -48.307819,14.32402 -25.179891,14.49858 -41.01944,37.01057 -42.996689,68.02902 34.210049,0 66.195198,0 99.789388,0 0,-7.01861 -0.0436,-12.81759 0.008,-18.61571 0.23751,-26.94336 2.91434,-29.72619 29.20426,-29.78285 31.63744,-0.068 63.27512,-0.0163 98.87131,-0.0163 m 43.29948,33.24099 c -45.14121,0 -90.28242,0 -135.46672,0 0,29.59367 0,56.75252 0,83.70819 56.87031,0 112.26838,0 167.6213,0 0,-28.55657 0,-55.24476 0,-83.70819 -10.18387,0 -19.23787,0 -32.15458,0 m -39.692,153.7992 c 36.63203,0 36.63203,0 44.56624,-33.83054 -37.80949,0 -75.48125,0 -113.39504,0 7.13958,33.82972 7.13958,33.82984 39.26819,33.83054 8.57398,2.5e-4 17.14798,-2.3e-4 29.56061,0 m 351.56685,321.75743 c 4.1766,-3.6437 8.35315,-7.28727 12.52974,-10.93089 -1.21182,-1.35674 -2.42364,-2.71349 -3.63546,-4.07022 -50.21487,0 -100.4297,0 -150.64462,0 -0.87737,2.17903 -1.75469,4.358 -2.63201,6.53705 5.48194,2.82539 10.92451,8.00788 16.45213,8.10019 41.37583,0.69112 82.76852,0.37684 127.93022,0.36379 m -473.91194,-16.3286 c -19.56424,0 -39.12845,0 -58.692689,0 -1.20411,1.89953 -2.40821,3.79919 -3.61236,5.69872 4.3535,3.54207 8.65352,10.08281 13.06872,10.16155 43.319419,0.77241 86.659479,0.27155 129.990209,0.59449 12.55707,0.0935 13.92241,-5.4263 10.29883,-16.45476 -29.49145,0 -58.29686,0 -91.05271,0 M 271.95796,485.77615 c -7.20592,-20.66974 -21.78227,-5.98681 -39.40124,-10.56579 7.16341,21.20407 12.57166,37.2127 17.97989,53.2213 3.28806,-0.11277 6.57609,-0.22526 9.86415,-0.33807 3.86111,-13.01761 7.72224,-26.03511 11.5572,-42.31736 z"
   id="path2"
   style="fill:#e23124;fill-opacity:1;stroke-width:3.95851" />







<path
   fill="#FB9924"
   opacity="1"
   stroke="none"
   d="m 612.31771,113.14556 c -27.16318,24.38179 -54.99893,29.08289 -82.36226,14.81494 -24.7808,-12.92147 -39.15302,-39.654983 -35.97517,-66.917363 3.39774,-29.148128 22.49505,-51.2713935 50.80963,-58.8599485 27.03401,-7.2452347 56.59712,3.9492105 72.75368,27.5489265 17.54904,25.633722 16.13372,52.932721 -5.22588,83.413445 M 534.83738,88.675796 c 10.57541,12.068004 24.26356,18.375184 38.36324,9.988843 9.0298,-5.370845 17.54319,-15.902198 20.66998,-25.880662 4.47945,-14.295343 -2.21811,-29.679786 -16.88098,-33.417943 -11.7003,-2.983139 -27.99778,-1.65684 -37.75659,4.681659 -14.65248,9.517189 -15.25402,26.410346 -4.39565,44.628103 z"
   id="path10"
   style="fill:#e23124;fill-opacity:1;stroke-width:3.95851" />
<path
   fill="#FB9924"
   opacity="1"
   stroke="none"
   d="M 51.922589,90.98052 C 64.811601,59.093027 88.189441,45.418918 114.94567,52.772658 c 24.62181,6.767086 40.58105,30.581234 37.14664,55.429702 -3.85564,27.89577 -28.47179,47.72663 -55.375003,44.61025 C 66.520451,149.31486 49.626808,126.65364 51.922589,90.98052 m 33.351992,7.154386 c -0.97514,12.512434 4.51738,21.031784 17.223229,19.918574 5.46497,-0.47886 13.36521,-7.12204 14.6004,-12.29245 1.21601,-5.09034 -4.32034,-16.749992 -7.39128,-16.927559 -7.55316,-0.436992 -15.392239,4.068552 -24.432349,9.301435 z"
   id="path11"
   style="fill:#e23124;fill-opacity:1;stroke-width:3.95851" />

<path
   fill="#FB9D2D"
   opacity="1"
   stroke="none"
   d="m 190.36509,146.02099 c -6.41798,-11.94657 -3.60953,-21.47451 7.20514,-24.84265 5.65065,-1.75977 15.64843,1.59073 19.63438,6.16269 3.1302,3.59041 1.66983,17.56785 -0.56725,18.29776 -7.8187,2.55004 -16.85856,1.35639 -26.27227,0.38199 z"
   id="path13"
   style="fill:#e23124;fill-opacity:1;stroke-width:3.95851" />
<path
   fill="#FB9D2D"
   opacity="1"
   stroke="none"
   d="m 722.00679,120.79404 c 12.14764,9.87575 12.89153,21.11963 1.57469,28.2706 -4.87419,3.08005 -18.4386,-0.22127 -22.80204,-5.21415 -9.56365,-10.94327 1.19227,-23.25192 21.22735,-23.05645 z"
   id="path14"
   style="fill:#e23124;fill-opacity:1;stroke-width:3.95851" />
<path
   fill="#FB9D2D"
   opacity="1"
   stroke="none"
   d="m 256.27444,61.716641 c 9.6819,-13.198719 20.90525,-14.893861 28.84334,-2.387217 3.05308,4.810302 -0.1817,18.165113 -5.0875,22.539793 -10.71719,9.556959 -22.94354,-0.373298 -23.75584,-20.152576 z"
   id="path15"
   style="fill:#e23124;fill-opacity:1;stroke-width:3.95851" />
<path
   fill="#FB9924"
   opacity="1"
   stroke="none"
   d="m 396.80162,107.58047 c 8.71197,-0.49833 17.64987,-2.01452 23.36149,1.58651 3.22841,2.03531 3.44343,13.70513 0.74689,18.75659 -2.18073,4.08546 -11.51742,7.67745 -16.33046,6.40091 -13.7896,-3.65723 -16.23573,-13.46631 -7.77792,-26.74401 z"
   id="path16"
   style="fill:#e23124;fill-opacity:1;stroke-width:3.95851" />












<path
   fill="#FB9924"
   opacity="1"
   stroke="none"
   d="m 443.15631,541.94246 c 0.002,-26.95238 0.4211,-52.00179 -0.14377,-77.02891 -0.36498,-16.17979 6.76224,-22.92455 22.61432,-22.08387 9.85669,0.5226 19.76929,-0.11685 29.6463,0.1516 35.8868,0.97501 65.09818,29.81391 66.39777,65.3666 1.30322,35.65155 -27.95524,67.29536 -64.51201,69.5846 -6.56539,0.41122 -13.17314,0.18764 -19.76134,0.18883 -34.06909,0.003 -34.20664,-0.14051 -34.24147,-36.17874 m 82.19068,-20.44318 c 4.29916,-33.57795 -12.93606,-49.47702 -47.78683,-43.48292 0,21.70296 0,43.47698 0,66.34983 19.9595,0.77662 36.90318,-0.78826 47.78683,-22.86691 z"
   id="path29"
   style="fill:#e23124;fill-opacity:1;stroke-width:3.95851" />
<path
   fill="#FB9924"
   opacity="1"
   stroke="none"
   d="m 359.58979,544.34381 c 2.98302,-0.20544 4.36774,0.0163 5.60217,-0.31866 8.25264,-2.23407 16.47333,-4.58646 24.70427,-6.90071 -7.23047,-3.50479 -15.12723,-6.10316 -21.49374,-10.78312 -5.73127,-4.21329 -13.50267,-10.69892 -13.51758,-16.20094 -0.0163,-5.35164 8.03051,-11.58597 13.71791,-15.86137 6.2642,-4.70928 13.87428,-7.62842 20.898,-11.32746 -8.15986,-2.3848 -16.20237,-6.10497 -24.50761,-6.83437 -11.82856,-1.03892 -23.7991,-1.38335 -23.90294,-16.76257 -0.10444,-15.46996 11.63289,-17.02942 23.69836,-16.39652 11.10074,0.58189 22.78022,-0.50813 33.15248,2.6235 20.62213,6.22639 30.40801,28.81994 25.67043,51.40599 -1.72917,8.24357 -2.04811,17.54161 -0.10053,25.66064 6.81019,28.3913 -10.89855,53.60581 -40.23387,55.38683 -7.21033,0.43777 -15.1067,1.88235 -21.54007,-0.38792 -7.5751,-2.67292 -17.62672,-7.51431 -19.95915,-13.85858 -4.26503,-11.6007 4.86624,-17.62473 17.81197,-19.44489 z"
   id="path30"
   style="fill:#e23124;fill-opacity:1;stroke-width:3.95851" />
<path
   fill="#FB9D2D"
   opacity="1"
   stroke="none"
   d="m 113.22622,600.31631 c 8.17282,10.94632 7.23224,20.65426 -3.53797,25.82689 -5.07833,2.43905 -15.188779,1.14932 -19.065109,-2.57085 -3.81447,-3.66072 -5.31629,-13.69497 -3.07885,-18.88149 4.81338,-11.15746 14.564169,-11.83299 25.681929,-4.37455 z"
   id="path31"
   style="fill:#e23124;fill-opacity:1;stroke-width:3.95851" />
<path
   fill="#FB9D2D"
   opacity="1"
   stroke="none"
   d="m 159.81228,529.1969 c 12.2803,9.57395 14.062,20.51279 1.94946,27.81142 -5.05915,3.0485 -16.01118,-1.37822 -22.92693,-4.99825 -2.33534,-1.22242 -2.78165,-12.99688 -0.0542,-15.43757 4.98793,-4.46362 12.98239,-5.56741 21.03168,-7.3756 z"
   id="path32"
   style="fill:#e23124;fill-opacity:1;stroke-width:3.95851" />
<path
   fill="#FB9D2D"
   opacity="1"
   stroke="none"
   d="m 92.077691,461.44426 c 2.80469,8.7424 6.758916,17.34753 4.855186,24.36285 -0.89818,3.30983 -14.026316,6.36051 -19.758646,4.31985 -4.49524,-1.60027 -9.18379,-11.63043 -8.41694,-17.17256 1.5999,-11.5629 10.54362,-15.5851 23.3204,-11.51014 z"
   id="path33"
   style="fill:#e23124;fill-opacity:1;stroke-width:3.95851" />

</svg>
