<?xml version="1.0" encoding="UTF-8" standalone="no"?>
<svg
   version="1.1"
   id="Layer_1"
   x="0px"
   y="0px"
   width="702"
   viewBox="0 0 702 204"
   enable-background="new 0 0 800 800"
   xml:space="preserve"
   sodipodi:docname="Premaker (2).svg"
   inkscape:version="1.3.2 (091e20e, 2023-11-25, custom)"
   height="204"
   xmlns:inkscape="http://www.inkscape.org/namespaces/inkscape"
   xmlns:sodipodi="http://sodipodi.sourceforge.net/DTD/sodipodi-0.dtd"
   xmlns="http://www.w3.org/2000/svg"
   xmlns:svg="http://www.w3.org/2000/svg"><defs
   id="defs34" /><sodipodi:namedview
   id="namedview34"
   pagecolor="#505050"
   bordercolor="#eeeeee"
   borderopacity="1"
   inkscape:showpageshadow="0"
   inkscape:pageopacity="0"
   inkscape:pagecheckerboard="0"
   inkscape:deskcolor="#505050"
   inkscape:zoom="0.99375"
   inkscape:cx="363.27044"
   inkscape:cy="203.77358"
   inkscape:window-width="1920"
   inkscape:window-height="1051"
   inkscape:window-x="-9"
   inkscape:window-y="-9"
   inkscape:window-maximized="1"
   inkscape:current-layer="Layer_1" />

<path
   fill="#FB9924"
   opacity="1"
   stroke="none"
   d="M 7.312159,188.9509 C 5.821276,187.224 3.858603,185.55927 3.850977,183.88563 3.687796,148.05756 3.486235,112.22571 3.877837,76.400977 c 0.167702,-15.34156 15.25663,-29.0835 31.454068,-29.15427 43.827182,-0.19144 87.655905,-0.12964 131.483635,-0.0178 10.13725,0.0259 17.76904,7.18967 17.82173,17.13937 0.20999,39.660313 0.1046,79.322273 0.13542,118.983613 0.003,3.96354 -1.89225,5.82059 -5.84039,5.71406 -2.30209,-0.0621 -4.60725,-0.0114 -7.17317,-0.0114 -0.15573,1.14405 -0.33348,1.91889 -0.35634,2.69821 -0.30205,10.30234 -0.2966,10.3028 -10.36752,10.30301 -12.33184,2.8e-4 -24.66368,0.005 -36.99552,-0.002 -8.00332,-0.004 -8.37869,-0.38851 -8.44891,-8.51797 -0.0112,-1.29547 -0.002,-2.59112 -0.002,-4.18164 -14.50392,0 -28.573653,0 -42.691133,0 -0.18267,0.58997 -0.46066,1.04819 -0.44301,1.49478 0.4954,12.53302 -1.8357,11.20651 -12.004387,11.20654 -11.831902,0 -23.663795,0.006 -35.495697,-0.002 -7.827343,-0.005 -8.312218,-0.48181 -8.364296,-8.10892 -0.0099,-1.45636 -0.0014,-2.91287 -0.0014,-4.93606 -3.269291,0 -6.053867,0 -9.27716,-0.058 m 48.03552,-65.81658 c -0.320786,-0.88932 -0.563957,-2.51148 -0.974327,-2.55493 -4.235955,-0.44858 -5.005204,-3.92582 -6.319054,-6.91083 -1.138435,-2.58646 -2.020653,-5.29672 -3.311043,-7.80026 -0.590034,-1.14475 -1.740326,-2.43647 -2.894767,-2.77143 -3.239426,-0.93982 -3.990059,-3.138003 -3.956322,-6.064823 0.04127,-3.58038 0.0098,-7.16162 0.0098,-10.69046 -9.035172,0 -17.288254,0 -25.764496,0 0,31.380253 0,62.466223 0,93.930453 45.875976,0 91.577372,0 137.272492,0 0,-31.49084 0,-62.71716 0,-94.020263 -17.11692,0 -33.89084,0 -51.256753,0 0,3.64832 0.16631,7.1152 -0.0702,10.55438 -0.11815,1.71817 -0.60593,4.594583 -1.55262,4.881533 -6.50462,1.97153 -6.10833,8.38428 -8.86743,12.72492 -1.62997,2.56433 -3.71795,4.83749 -5.59997,7.24161 -0.52027,-0.27826 -1.04055,-0.55652 -1.56084,-0.83478 2.40491,8.02423 -2.36707,13.4172 -6.0175,19.37768 -1.64359,2.68366 -1.98261,6.16629 -3.05426,9.75791 2.73907,0.11993 4.05363,0.22656 5.36826,0.2276 15.82688,0.0125 31.654613,-0.0874 47.480283,0.0514 7.87346,0.069 12.62781,4.54156 12.49789,11.20029 -0.12491,6.40396 -4.95421,10.4515 -12.62146,10.45623 -30.487583,0.0187 -60.975163,0.008 -91.462739,0.008 -0.666397,0 -1.332825,-0.007 -1.999176,-0.002 -3.071274,0.0243 -5.510025,-1.21192 -5.42096,-4.47251 0.08926,-3.26809 2.646645,-4.31625 5.674301,-4.23712 1.165383,0.0305 2.332253,0.003 3.498444,0.003 29.654577,-3.4e-4 59.309267,0.0271 88.96346,-0.0811 1.51068,-0.005 3.01709,-1.1784 4.52548,-1.8078 -1.5332,-0.75137 -3.0607,-2.14236 -4.60051,-2.15613 -17.3249,-0.15488 -34.651683,-0.0873 -51.977943,-0.10376 -6.5653,-0.006 -7.91639,-1.03778 -7.50007,-7.46191 0.38728,-5.97608 -0.87954,-11.12085 -4.822145,-15.62528 -2.999229,-3.42669 -4.353546,-7.39547 -3.685867,-12.81994 m 103.269505,3.41026 c 0,17.87894 0,35.7579 0,53.61636 6.15649,0 11.42582,0 16.84115,0 0.16686,-0.85577 0.39577,-1.48291 0.39616,-2.11017 0.0236,-37.78036 0.086,-75.56103 -0.10583,-113.340393 -0.0117,-2.30932 -1.46986,-5.61658 -3.28854,-6.66281 -2.3953,-1.37787 -6.017,-1.8027 -8.74447,-1.13605 -3.69949,0.90424 -5.12634,4.3111 -5.11782,8.21765 0.0439,20.1384 0.0197,40.276923 0.0194,61.415413 M 70.254657,64.645727 c 5.32817,6e-5 10.65633,0.006 15.98449,-10e-4 12.35482,-0.0176 11.76034,-0.91214 12.35731,11.40243 0.0126,0.25974 0.34801,0.50388 0.6015,0.8487 16.663103,0 33.392033,0 50.090623,0 0.52288,-7.09867 1.02448,-13.90863 1.53098,-20.78485 -0.0398,-0.01 -0.35861,-0.15668 -0.67751,-0.15686 -38.12941,-0.0206 -76.259573,-0.14017 -114.387169,0.11834 -4.105453,0.0278 -8.604301,1.54615 -12.203514,3.61853 -6.360942,3.66263 -10.362331,9.34961 -10.861828,17.18549 8.642144,0 16.722233,0 25.20879,0 0,-1.77304 -0.01103,-3.23798 0.0019,-4.7027 0.06001,-6.80643 0.736221,-7.50943 7.377579,-7.52374 7.992248,-0.0172 15.984559,-0.004 24.976859,-0.004 m 10.93831,8.39734 c -11.40356,0 -22.80713,0 -34.221589,0 0,7.47595 0,14.33682 0,21.14636 14.366569,0 28.361229,0 42.344489,0 0,-7.21396 0,-13.95593 0,-21.14636 -2.57265,0 -4.85988,0 -8.1229,0 m -10.02698,38.852753 c 9.25397,0 9.25397,0 11.25831,-8.54626 -9.55142,0 -19.06807,0 -28.645843,0 1.803604,8.54605 1.803604,8.54608 9.919933,8.54626 2.16596,6e-5 4.33192,-6e-5 7.4676,0 m 88.812813,81.28235 c 1.05508,-0.92047 2.11017,-1.84091 3.16525,-2.76136 -0.30612,-0.34274 -0.61226,-0.68548 -0.91838,-1.02822 -12.68529,0 -25.37056,0 -38.05585,0 -0.22163,0.55047 -0.44326,1.10092 -0.6649,1.65139 1.38486,0.71375 2.75975,2.02295 4.15615,2.04627 10.45236,0.17459 20.90898,0.0951 32.31773,0.0919 M 40.25915,189.05341 c -4.942314,0 -9.884629,0 -14.826943,0 -0.304184,0.47986 -0.608368,0.95975 -0.912552,1.43961 1.099778,0.8948 2.186051,2.54712 3.301415,2.56701 10.943352,0.19513 21.891914,0.0686 32.838119,0.15018 3.172178,0.0236 3.517078,-1.37079 2.601688,-4.1568 -7.450122,0 -14.726947,0 -23.001727,0 m 32.093967,-66.33624 c -1.82035,-5.22159 -5.50264,-1.51239 -9.95353,-2.66913 1.80962,5.35657 3.17585,9.40067 4.54208,13.44476 0.83063,-0.0285 1.66125,-0.0569 2.49188,-0.0854 0.97539,-3.28851 1.95079,-6.57699 2.91957,-10.69021 z"
   id="path2"
   style="fill:#e23124;fill-opacity:1" />
<path
   fill="#060606"
   opacity="1"
   stroke="none"
   d="m 273.00611,72.712087 c 14.63733,12.21687 18.95619,29.383953 16.1986,49.365843 -2.71085,19.64287 -12.64111,31.77143 -28.57597,36.28499 -18.51145,5.24336 -36.79575,-5.14791 -44.07879,-24.84018 -7.80195,-21.09532 -2.89746,-47.335323 11.83948,-59.374323 14.28241,-11.66766 29.32337,-11.45046 44.61668,-1.43633 m -38.9741,10.58402 c -10.76149,10.17906 -13.22341,23.846053 -10.39336,39.173133 2.58734,14.01267 10.28336,22.22772 21.74979,25.02968 23.21926,5.67384 40.91797,-19.68291 33.33213,-47.649843 -5.85251,-21.57659 -27.00209,-29.68579 -44.68856,-16.55297 z"
   id="path3"
   style="stroke-width:0.90239" />
<path
   fill="#050505"
   opacity="1"
   stroke="none"
   d="m 405.7665,173.02439 c 0,3.80783 0,7.11856 0,10.72851 -3.58594,0 -6.98279,0 -10.67371,0 0,-30.83206 0,-61.71221 0,-92.873653 2.74317,0 5.51343,0 8.64975,0 0.41535,2.8457 0.84424,5.7843 1.39557,9.561673 8.1947,-8.244233 17.79593,-12.234953 29.13394,-11.413633 11.40573,0.8262 20.24573,6.05627 26.39304,15.664003 9.18985,14.36295 6.06024,36.12283 -6.57513,47.03152 -11.39206,9.8353 -32.54435,12.30265 -48.32346,-2.95236 0,8.34098 0,16.04892 0,24.25394 m 46.85742,-60.06598 c -6.48684,-11.95331 -19.75461,-16.791443 -32.37756,-11.80652 -11.3714,4.4906 -17.31415,17.49027 -13.83151,30.25626 3.3992,12.46017 14.60226,19.42572 28.10852,17.47653 16.08175,-2.32089 24.22918,-17.9263 18.10055,-35.92627 z"
   id="path4" />
<path
   fill="#060606"
   opacity="1"
   stroke="none"
   d="m 576.65023,140.04307 c 0,-16.64222 0,-32.78473 0,-49.187143 3.04468,0 5.81891,0 8.77661,0 0.43756,2.75711 0.87201,5.49451 1.43256,9.02655 6.55853,-7.27218 14.19049,-10.94208 23.48925,-10.94464 15.67072,-0.004 27.38306,10.01373 28.21973,25.697483 0.76092,14.26477 0.16101,28.60217 0.16101,43.16428 -3.33343,0 -6.72491,0 -10.56165,0 0,-9.61338 0.0205,-19.07355 -0.0105,-28.5336 -0.0115,-3.4953 -0.01,-6.9993 -0.24591,-10.48362 -0.77723,-11.47402 -6.80079,-18.27148 -17.0232,-19.378353 -9.95978,-1.07843 -19.33917,5.413633 -21.99518,15.674803 -0.94439,3.64856 -1.18133,7.55036 -1.24078,11.34436 -0.1615,10.30631 -0.0554,20.61676 -0.0554,31.27863 -3.58575,0 -6.97455,0 -10.94647,0 0,-5.63608 0,-11.39755 0,-17.65875 z"
   id="path5" />
<path
   fill="#060606"
   opacity="1"
   stroke="none"
   d="m 361.16777,152.82737 c -0.0382,-11.13773 0.21662,-21.80899 -0.18862,-32.45508 -0.51169,-13.4418 -7.78739,-21.230803 -18.99207,-21.110293 -11.56204,0.12433 -20.69708,9.078223 -21.13061,21.584813 -0.4206,12.13318 -0.0913,24.29233 -0.0913,36.82425 -3.69916,0 -7.08689,0 -10.79975,0 0,-22.02964 0,-44.26276 0,-66.786933 2.6803,0 5.44431,0 8.45771,0 0.4295,2.69882 0.8656,5.43909 1.39453,8.7626 1.24078,-1.12057 2.15054,-1.94561 3.06399,-2.76657 9.32874,-8.38385 20.12445,-10.09765 31.61267,-5.97485 11.53427,4.13925 16.68119,13.562293 17.16336,25.163733 0.57294,13.78552 0.13486,27.6131 0.13486,41.70474 -3.37009,0 -6.76047,0 -10.42691,0 -0.0681,-1.53873 -0.13302,-3.00375 -0.19788,-4.94641 z"
   id="path6" />
<path
   fill="#090909"
   opacity="1"
   stroke="none"
   d="m 667.70553,104.13691 c -0.85816,-1.49356 -1.64368,-3.26865 -2.5871,-3.357 -3.62256,-0.33905 -7.29578,-0.1373 -11.24274,-0.1373 0,-3.282103 0,-6.370273 0,-8.952483 4.59851,-1.19644 10.41126,-1.05966 13.18262,-3.89535 2.75165,-2.8154 2.44275,-8.62198 3.57904,-13.56452 2.22668,0 4.94379,0 8.01935,0 0,5.28751 0,10.5524 0,16.35553 3.9226,0 7.51617,0 11.10968,0 3.45727,0 6.91455,0 10.56402,0 0,3.46851 0,6.41571 0,9.895753 -7.09503,0 -14.15905,0 -21.49902,0 0,12.46585 -0.28986,24.4141 0.11499,36.33875 0.22241,6.54895 4.33276,9.99719 11.09662,10.45196 3.60419,0.24237 7.23816,0.043 11.10663,0.043 0,3.89383 0,7.11926 0,10.43329 -5.00708,0 -9.85822,0.5141 -14.56116,-0.10226 -11.32941,-1.4849 -18.2323,-9.23114 -18.67993,-21.07529 -0.40198,-10.63431 -0.16046,-21.29294 -0.203,-32.43405 z"
   id="path7" />
<path
   fill="#040404"
   opacity="1"
   stroke="none"
   d="m 488.84994,158.05198 c -2.19935,-0.0651 -4.10615,0.60397 -4.09174,-2.49152 0.1001,-21.47439 0.0528,-42.94946 0.0528,-64.690733 3.06403,0 5.83344,0 8.90467,0 0.43805,3.24014 0.87903,6.50232 1.25885,9.311643 4.15961,-2.663723 8.15692,-6.290133 12.84875,-7.933503 4.86127,-1.70267 10.39581,-1.48306 16.05634,-2.15411 0,3.84637 0,6.91516 0,10.802183 -2.53827,0 -5.13483,-0.10858 -7.71973,0.019 -10.65326,0.52564 -18.00098,6.15287 -19.25348,16.66498 -1.23492,10.36466 -0.8457,20.92441 -1.13019,31.39963 -0.0764,2.81555 -0.0115,5.63498 -0.0115,9.07248 -2.2583,0 -4.34821,0 -6.91479,-3e-5 z"
   id="path8" />
<path
   fill="#060606"
   opacity="1"
   stroke="none"
   d="m 541.65023,132.0438 c 0,-13.97855 0,-27.45709 0,-41.191533 3.68823,0 7.10614,0 10.73535,0 0,22.328983 0,44.415343 0,66.853033 -3.38062,0 -6.76923,0 -10.73535,0 0,-8.30899 0,-16.73523 0,-25.6615 z"
   id="path9" />
<path
   fill="#FB9924"
   opacity="1"
   stroke="none"
   d="m 158.33516,28.582827 c -6.86195,6.15933 -13.89383,7.34692 -20.80635,3.74255 -6.26013,-3.26422 -9.89084,-10.01763 -9.08804,-16.90466 0.85834,-7.3634004 5.68269,-12.9521804 12.83553,-14.86920045 6.82933,-1.83028995 14.29756,0.99765005 18.37902,6.95941005 4.43325,6.4755904 4.0757,13.3718604 -1.32016,21.0719004 m -19.57307,-6.18155 c 2.67155,3.04862 6.12946,4.64194 9.69131,2.52338 2.28112,-1.35678 4.43177,-4.01721 5.22165,-6.53797 1.13161,-3.61129 -0.56033,-7.49771 -4.26446,-8.4420404 -2.95574,-0.7536 -7.0728,-0.41855 -9.53807,1.1826804 -3.70151,2.40423 -3.85347,6.67178 -1.11043,11.27395 z"
   id="path10"
   style="fill:#e23124;fill-opacity:1" />
<path
   fill="#FB9924"
   opacity="1"
   stroke="none"
   d="m 16.768164,22.983497 c 3.256016,-8.05542 9.161732,-11.50977 15.920894,-9.65207 6.219956,1.7095 10.25158,7.72543 9.383973,14.00265 -0.974007,7.04703 -7.192536,12.0567 -13.988823,11.26944 -7.628334,-0.8836 -11.896,-6.60827 -11.316044,-15.62002 m 8.425381,1.80734 c -0.246346,3.16089 1.141181,5.31305 4.350929,5.03183 1.380562,-0.12097 3.37632,-1.79917 3.688347,-3.10532 0.30719,-1.28592 -1.091401,-4.23138 -1.86718,-4.27624 -1.908081,-0.11039 -3.88839,1.0278 -6.172096,2.34973 z"
   id="path11"
   style="fill:#e23124;fill-opacity:1" />
<path
   fill="#060606"
   opacity="1"
   stroke="none"
   d="m 544.56575,62.757177 c 4.54975,-0.91458 8.48426,0.0115 9.97089,4.07052 0.95703,2.61307 0.74439,6.30207 -0.38599,8.87558 -1.57153,3.5781 -5.46118,4.02469 -9.11694,3.38935 -3.88245,-0.67469 -6.25061,-3.10178 -6.63977,-7.0351 -0.44134,-4.46026 1.23462,-7.79172 6.17181,-9.30035 z"
   id="path12" />
<path
   fill="#FB9D2D"
   opacity="1"
   stroke="none"
   d="m 51.741503,36.887817 c -1.621307,-3.01794 -0.911842,-5.42489 1.82016,-6.27575 1.427475,-0.44455 3.95311,0.40185 4.960037,1.55682 0.790749,0.90701 0.421829,4.43799 -0.143295,4.62238 -1.975159,0.64419 -4.258812,0.34265 -6.636902,0.0965 z"
   id="path13"
   style="fill:#e23124;fill-opacity:1" />
<path
   fill="#FB9D2D"
   opacity="1"
   stroke="none"
   d="m 186.04482,30.514987 c 3.06874,2.49481 3.25665,5.33524 0.3978,7.14172 -1.23133,0.77808 -4.65796,-0.0559 -5.76026,-1.3172 -2.41597,-2.76449 0.3012,-5.8739 5.36246,-5.82452 z"
   id="path14"
   style="fill:#e23124;fill-opacity:1" />
<path
   fill="#FB9D2D"
   opacity="1"
   stroke="none"
   d="m 68.391527,15.590857 c 2.44584,-3.33426 5.28107,-3.76249 7.2864,-0.60306 0.77127,1.21518 -0.0459,4.58887 -1.2852,5.694 -2.70738,2.41428 -5.796,-0.0943 -6.0012,-5.09094 z"
   id="path15"
   style="fill:#e23124;fill-opacity:1" />
<path
   fill="#FB9924"
   opacity="1"
   stroke="none"
   d="m 103.8915,27.176977 c 2.20082,-0.12589 4.45871,-0.50891 5.90158,0.40078 0.81555,0.51416 0.86987,3.46219 0.18868,4.73829 -0.55091,1.03207 -2.90954,1.93948 -4.1254,1.617 -3.48354,-0.92389 -4.10147,-3.40186 -1.96486,-6.75607 z"
   id="path16"
   style="fill:#e23124;fill-opacity:1" />












<path
   fill="#FB9924"
   opacity="1"
   stroke="none"
   d="m 115.60161,136.90549 c 4.6e-4,-6.80871 0.10639,-13.13669 -0.0363,-19.45904 -0.0922,-4.08734 1.70829,-5.7912 5.71283,-5.57883 2.49001,0.13202 4.99413,-0.0295 7.48926,0.0383 9.06572,0.24631 16.4451,7.53159 16.77339,16.51291 0.32923,9.00629 -7.06204,17.00015 -16.29701,17.57846 -1.65855,0.10388 -3.32781,0.0475 -4.99211,0.0477 -8.60654,10e-4 -8.64128,-0.0355 -8.65009,-9.13947 m 20.76302,-5.16436 c 1.08604,-8.48246 -3.26792,-12.49888 -12.07192,-10.98465 0,5.4826 0,10.98315 0,16.76129 5.04218,0.19619 9.32248,-0.19913 12.07192,-5.77664 z"
   id="path29"
   style="fill:#e23124;fill-opacity:1" />
<path
   fill="#FB9924"
   opacity="1"
   stroke="none"
   d="m 94.491047,137.51212 c 0.75357,-0.0519 1.10338,0.004 1.41522,-0.0805 2.08478,-0.56437 4.161483,-1.15863 6.240783,-1.74326 -1.82655,-0.88538 -3.821443,-1.54178 -5.429753,-2.72403 -1.44783,-1.06436 -3.41104,-2.70276 -3.41481,-4.09268 -0.004,-1.35193 2.02868,-2.92685 3.46543,-4.0069 1.58246,-1.18966 3.504913,-1.92709 5.279253,-2.86154 -2.061343,-0.60245 -4.093053,-1.54224 -6.191123,-1.7265 -2.98813,-0.26245 -6.01213,-0.34946 -6.03836,-4.23456 -0.0264,-3.90802 2.93871,-4.30197 5.98668,-4.14209 2.80428,0.147 5.754753,-0.12836 8.374993,0.66275 5.20956,1.57291 7.68167,7.28049 6.48486,12.98618 -0.43683,2.08249 -0.5174,4.43136 -0.0254,6.48239 1.72038,7.17221 -2.75319,13.5419 -10.16388,13.99182 -1.821473,0.1106 -3.816253,0.47552 -5.441453,-0.098 -1.91362,-0.67523 -4.45287,-1.89826 -5.04209,-3.50095 -1.07742,-2.93057 1.22931,-4.45236 4.49967,-4.91217 z"
   id="path30"
   style="fill:#e23124;fill-opacity:1" />
<path
   fill="#FB9D2D"
   opacity="1"
   stroke="none"
   d="m 32.254686,151.65189 c 2.064614,2.76526 1.827012,5.21768 -0.89376,6.52439 -1.282891,0.61615 -3.836991,0.29034 -4.816231,-0.64945 -0.963615,-0.92477 -1.343002,-3.45962 -0.777779,-4.76983 1.215958,-2.81861 3.6792,-2.98926 6.48777,-1.10511 z"
   id="path31"
   style="fill:#e23124;fill-opacity:1" />
<path
   fill="#FB9D2D"
   opacity="1"
   stroke="none"
   d="m 44.023256,133.68571 c 3.10225,2.41857 3.552338,5.18194 0.492463,7.02572 -1.278031,0.77011 -4.044739,-0.34817 -5.791794,-1.26266 -0.589951,-0.30881 -0.702706,-3.28327 -0.01369,-3.89984 1.260056,-1.1276 3.279617,-1.40644 5.313026,-1.86322 z"
   id="path32"
   style="fill:#e23124;fill-opacity:1" />
<path
   fill="#FB9D2D"
   opacity="1"
   stroke="none"
   d="m 26.912142,116.57004 c 0.708519,2.2085 1.707443,4.38233 1.226517,6.15454 -0.226899,0.83613 -3.543324,1.60679 -4.991425,1.09128 -1.135593,-0.40426 -2.320011,-2.93808 -2.126293,-4.33813 0.404175,-2.92102 2.663528,-3.93711 5.891201,-2.90769 z"
   id="path33"
   style="fill:#e23124;fill-opacity:1" />

</svg>
