<?xml version="1.0" encoding="UTF-8" standalone="no"?>
<svg
   version="1.1"
   id="Layer_1"
   x="0px"
   y="0px"
   width="100%"
   viewBox="0 0 800 800"
   enable-background="new 0 0 800 800"
   xml:space="preserve"
   sodipodi:docname="Premaker (2).svg"
   inkscape:version="1.3.2 (091e20e, 2023-11-25, custom)"
   xmlns:inkscape="http://www.inkscape.org/namespaces/inkscape"
   xmlns:sodipodi="http://sodipodi.sourceforge.net/DTD/sodipodi-0.dtd"
   xmlns="http://www.w3.org/2000/svg"
   xmlns:svg="http://www.w3.org/2000/svg"><defs
   id="defs34" /><sodipodi:namedview
   id="namedview34"
   pagecolor="#505050"
   bordercolor="#eeeeee"
   borderopacity="1"
   inkscape:showpageshadow="0"
   inkscape:pageopacity="0"
   inkscape:pagecheckerboard="0"
   inkscape:deskcolor="#505050"
   inkscape:zoom="0.99375"
   inkscape:cx="363.27044"
   inkscape:cy="402.01258"
   inkscape:window-width="1920"
   inkscape:window-height="1051"
   inkscape:window-x="-9"
   inkscape:window-y="-9"
   inkscape:window-maximized="1"
   inkscape:current-layer="Layer_1" />

<path
   fill="#FB9924"
   opacity="1.000000"
   stroke="none"
   d=" M46.557442,475.907043   C45.066559,474.180145 43.103886,472.515411 43.096260,470.841766   C42.933079,435.013702 42.731518,399.181854 43.123119,363.357117   C43.290821,348.015564 58.379749,334.273621 74.577187,334.202850   C118.404366,334.011414 162.233093,334.073212 206.060822,334.185089   C216.198074,334.210968 223.829865,341.374756 223.882553,351.324463   C224.092545,390.984772 223.987152,430.646729 224.017975,470.308075   C224.021057,474.271606 222.125717,476.128662 218.177582,476.022125   C215.875488,475.959991 213.570328,476.010773 211.004410,476.010773   C210.848679,477.154816 210.670929,477.929657 210.648071,478.708984   C210.346024,489.011322 210.351471,489.011780 200.280548,489.011993   C187.948715,489.012268 175.616867,489.016876 163.285034,489.010345   C155.281708,489.006134 154.906342,488.621826 154.836121,480.492371   C154.824921,479.196899 154.834549,477.901245 154.834549,476.310730   C140.330627,476.310730 126.260895,476.310730 112.143425,476.310730   C111.960754,476.900696 111.682755,477.358917 111.700409,477.805511   C112.195808,490.338531 109.864708,489.012024 99.696022,489.012054   C87.864120,489.012054 76.032227,489.017548 64.200325,489.010071   C56.372982,489.005157 55.888107,488.528259 55.836029,480.901154   C55.826084,479.444794 55.834602,477.988281 55.834602,475.965088   C52.565311,475.965088 49.780735,475.965088 46.557442,475.907043  M94.592560,410.090057   C94.271774,409.200745 94.028603,407.578583 93.618233,407.535126   C89.382278,407.086548 88.613029,403.609314 87.299179,400.624298   C86.160744,398.037842 85.278526,395.327576 83.988136,392.824036   C83.398102,391.679291 82.247810,390.387573 81.093369,390.052612   C77.853943,389.112793 77.103310,386.914612 77.137047,383.987793   C77.178322,380.407410 77.146889,376.826172 77.146889,373.297333   C68.111717,373.297333 59.858635,373.297333 51.382393,373.297333   C51.382393,404.677582 51.382393,435.763550 51.382393,467.227783   C97.258369,467.227783 142.959763,467.227783 188.654877,467.227783   C188.654877,435.736938 188.654877,404.510620 188.654877,373.207520   C171.537964,373.207520 154.764038,373.207520 137.398132,373.207520   C137.398132,376.855835 137.564438,380.322723 137.327927,383.761902   C137.209778,385.480072 136.722000,388.356476 135.775314,388.643433   C129.270691,390.614960 129.666977,397.027710 126.907883,401.368347   C125.277908,403.932678 123.189934,406.205841 121.307915,408.609955   C120.787636,408.331696 120.267357,408.053436 119.747070,407.775177   C122.151978,415.799408 117.379997,421.192383 113.729568,427.152863   C112.085983,429.836517 111.746956,433.319153 110.675308,436.910767   C113.414375,437.030701 114.728935,437.137329 116.043571,437.138367   C131.870453,437.150879 147.698181,437.051025 163.523849,437.189789   C171.397308,437.258789 176.151657,441.731354 176.021744,448.390076   C175.896835,454.794037 171.067535,458.841583 163.400284,458.846313   C132.912704,458.865051 102.425125,458.854095 71.937546,458.853943   C71.271149,458.853943 70.604721,458.847107 69.938370,458.852386   C66.867096,458.876678 64.428345,457.640472 64.517410,454.379883   C64.606674,451.111786 67.164055,450.063629 70.191711,450.142761   C71.357094,450.173218 72.523964,450.146057 73.690155,450.146027   C103.344734,450.145691 132.999420,450.173157 162.653610,450.064880   C164.164291,450.059387 165.670700,448.886475 167.179092,448.257080   C165.645889,447.505707 164.118393,446.114716 162.578583,446.100952   C145.253677,445.946075 127.926895,446.013672 110.600639,445.997192   C104.035339,445.990967 102.684250,444.959412 103.100571,438.535278   C103.487854,432.559204 102.221031,427.414429 98.278427,422.910004   C95.279198,419.483307 93.924881,415.514526 94.592560,410.090057  M197.862015,413.500000   C197.862015,431.378937 197.862015,449.257904 197.862015,467.116364   C204.018509,467.116364 209.287842,467.116364 214.703171,467.116364   C214.870026,466.260590 215.098938,465.633453 215.099335,465.006195   C215.122879,427.225830 215.185287,389.445160 214.993500,351.665802   C214.981766,349.356476 213.523636,346.049225 211.704956,345.002991   C209.309662,343.625122 205.687958,343.200287 202.960495,343.866943   C199.261002,344.771179 197.834152,348.178040 197.842667,352.084595   C197.886566,372.222992 197.862350,392.361511 197.862015,413.500000  M109.499893,351.601868   C114.828056,351.601929 120.156219,351.608337 125.484375,351.600739   C137.839203,351.583130 137.244720,350.688599 137.841690,363.003174   C137.854279,363.262909 138.189697,363.507050 138.443192,363.851868   C155.106293,363.851868 171.835220,363.851868 188.533813,363.851868   C189.056686,356.753204 189.558289,349.943237 190.064789,343.067017   C190.024994,343.057220 189.706177,342.910339 189.387283,342.910156   C151.257874,342.889587 113.127708,342.769989 75.000114,343.028503   C70.894661,343.056335 66.395813,344.574646 62.796600,346.647034   C56.435658,350.309662 52.434269,355.996643 51.934772,363.832520   C60.576916,363.832520 68.657005,363.832520 77.143562,363.832520   C77.143562,362.059479 77.132530,360.594543 77.145447,359.129822   C77.205460,352.323395 77.881668,351.620392 84.523026,351.606079   C92.515274,351.588867 100.507591,351.601654 109.499893,351.601868  M120.438202,359.999207   C109.034637,359.999207 97.631065,359.999207 86.216606,359.999207   C86.216606,367.475159 86.216606,374.336029 86.216606,381.145569   C100.583183,381.145569 114.577843,381.145569 128.561096,381.145569   C128.561096,373.931610 128.561096,367.189636 128.561096,359.999207   C125.988449,359.999207 123.701225,359.999207 120.438202,359.999207  M110.411217,398.851959   C119.665192,398.851959 119.665192,398.851959 121.669533,390.305695   C112.118111,390.305695 102.601463,390.305695 93.023682,390.305695   C94.827286,398.851746 94.827286,398.851776 102.943619,398.851959   C105.109581,398.852020 107.275536,398.851898 110.411217,398.851959  M199.224030,480.134308   C200.279114,479.213837 201.334198,478.293396 202.389282,477.372955   C202.083160,477.030212 201.777023,476.687469 201.470901,476.344727   C188.785614,476.344727 176.100342,476.344727 163.415054,476.344727   C163.193420,476.895203 162.971786,477.445648 162.750153,477.996124   C164.135010,478.709869 165.509903,480.019073 166.906296,480.042389   C177.358658,480.216980 187.815277,480.137543 199.224030,480.134308  M79.504433,476.009552   C74.562119,476.009552 69.619804,476.009552 64.677490,476.009552   C64.373306,476.489410 64.069122,476.969299 63.764938,477.449158   C64.864716,478.343964 65.950989,479.996277 67.066353,480.016174   C78.009705,480.211304 88.958267,480.084717 99.904472,480.166351   C103.076645,480.189972 103.421555,478.795563 102.506165,476.009552   C95.056038,476.009552 87.779213,476.009552 79.504433,476.009552  M111.598404,409.673309   C109.778046,404.451721 106.095764,408.160919 101.644867,407.004181   C103.454491,412.360748 104.820717,416.404846 106.186951,420.448944   C107.017578,420.420471 107.848198,420.391998 108.678825,420.363525   C109.654221,417.075012 110.629616,413.786530 111.598404,409.673309  z"
   id="path2"
   style="fill:#e23124;fill-opacity:1" />
<path
   fill="#060606"
   opacity="1"
   stroke="none"
   d="m 312.25139,359.66823 c 14.63733,12.21687 18.95619,29.38395 16.1986,49.36584 -2.71085,19.64287 -12.64111,31.77143 -28.57597,36.28499 -18.51145,5.24336 -36.79575,-5.14791 -44.07879,-24.84018 -7.80195,-21.09532 -2.89746,-47.33532 11.83948,-59.37432 14.28241,-11.66766 29.32337,-11.45046 44.61668,-1.43633 m -38.9741,10.58402 c -10.76149,10.17906 -13.22341,23.84605 -10.39336,39.17313 2.58734,14.01267 10.28336,22.22772 21.74979,25.02968 23.21926,5.67384 40.91797,-19.68291 33.33213,-47.64984 -5.85251,-21.57659 -27.00209,-29.68579 -44.68856,-16.55297 z"
   id="path3"
   style="stroke-width:0.90239" />
<path
   fill="#050505"
   opacity="1.000000"
   stroke="none"
   d=" M445.011780,459.980530   C445.011780,463.788361 445.011780,467.099091 445.011780,470.709045   C441.425842,470.709045 438.028992,470.709045 434.338074,470.709045   C434.338074,439.876984 434.338074,408.996826 434.338074,377.835388   C437.081238,377.835388 439.851501,377.835388 442.987823,377.835388   C443.403168,380.681091 443.832062,383.619690 444.383392,387.397064   C452.578094,379.152832 462.179321,375.162109 473.517334,375.983429   C484.923065,376.809631 493.763062,382.039703 499.910370,391.647430   C509.100220,406.010376 505.970612,427.770264 493.335236,438.678955   C481.943176,448.514252 460.790894,450.981598 445.011780,435.726593   C445.011780,444.067566 445.011780,451.775513 445.011780,459.980530  M491.869202,399.914551   C485.382355,387.961243 472.114594,383.123108 459.491638,388.108032   C448.120239,392.598633 442.177490,405.598297 445.660126,418.364288   C449.059326,430.824463 460.262390,437.790009 473.768646,435.840820   C489.850403,433.519928 497.997833,417.914520 491.869202,399.914551  z"
   id="path4" />
<path
   fill="#060606"
   opacity="1.000000"
   stroke="none"
   d=" M615.895508,426.999207   C615.895508,410.356995 615.895508,394.214478 615.895508,377.812073   C618.940186,377.812073 621.714417,377.812073 624.672119,377.812073   C625.109680,380.569183 625.544128,383.306580 626.104675,386.838623   C632.663208,379.566437 640.295166,375.896545 649.593933,375.893982   C665.264648,375.889618 676.976990,385.907715 677.813660,401.591461   C678.574585,415.856232 677.974670,430.193634 677.974670,444.755737   C674.641235,444.755737 671.249756,444.755737 667.413025,444.755737   C667.413025,435.142365 667.433472,425.682190 667.402466,416.222137   C667.390991,412.726837 667.392578,409.222839 667.156555,405.738525   C666.379333,394.264496 660.355774,387.467041 650.133362,386.360168   C640.173584,385.281738 630.794189,391.773804 628.138184,402.034973   C627.193787,405.683533 626.956848,409.585327 626.897400,413.379333   C626.735901,423.685638 626.841980,433.996094 626.841980,444.657959   C623.256226,444.657959 619.867432,444.657959 615.895508,444.657959   C615.895508,439.021881 615.895508,433.260406 615.895508,426.999207  z"
   id="path5" />
<path
   fill="#060606"
   opacity="1.000000"
   stroke="none"
   d=" M400.413055,439.783508   C400.374847,428.645782 400.629669,417.974518 400.224426,407.328430   C399.712738,393.886627 392.437042,386.097626 381.232361,386.218140   C369.670319,386.342468 360.535278,395.296356 360.101746,407.802948   C359.681152,419.936127 360.010468,432.095276 360.010468,444.627197   C356.311310,444.627197 352.923584,444.627197 349.210724,444.627197   C349.210724,422.597565 349.210724,400.364441 349.210724,377.840271   C351.891022,377.840271 354.655029,377.840271 357.668427,377.840271   C358.097931,380.539093 358.534027,383.279358 359.062958,386.602875   C360.303741,385.482300 361.213501,384.657257 362.126953,383.836304   C371.455688,375.452454 382.251404,373.738647 393.739624,377.861450   C405.273895,382.000702 410.420807,391.423737 410.902985,403.025177   C411.475922,416.810699 411.037842,430.638275 411.037842,444.729919   C407.667755,444.729919 404.277374,444.729919 400.610931,444.729919   C400.542786,443.191193 400.477905,441.726166 400.413055,439.783508  z"
   id="path6" />
<path
   fill="#090909"
   opacity="1.000000"
   stroke="none"
   d=" M706.950806,391.093048   C706.092651,389.599487 705.307129,387.824402 704.363708,387.736053   C700.741150,387.397003 697.067932,387.598755 693.120972,387.598755   C693.120972,384.316650 693.120972,381.228485 693.120972,378.646271   C697.719482,377.449829 703.532227,377.586609 706.303589,374.750916   C709.055237,371.935516 708.746338,366.128937 709.882629,361.186401   C712.109314,361.186401 714.826416,361.186401 717.901978,361.186401   C717.901978,366.473907 717.901978,371.738800 717.901978,377.541931   C721.824585,377.541931 725.418152,377.541931 729.011658,377.541931   C732.468933,377.541931 735.926208,377.541931 739.575684,377.541931   C739.575684,381.010437 739.575684,383.957642 739.575684,387.437683   C732.480652,387.437683 725.416626,387.437683 718.076660,387.437683   C718.076660,399.903534 717.786804,411.851776 718.191650,423.776428   C718.414062,430.325378 722.524414,433.773621 729.288269,434.228394   C732.892456,434.470764 736.526428,434.271362 740.394897,434.271362   C740.394897,438.165192 740.394897,441.390625 740.394897,444.704651   C735.387817,444.704651 730.536682,445.218750 725.833740,444.602386   C714.504333,443.117493 707.601440,435.371246 707.153809,423.527100   C706.751831,412.892792 706.993347,402.234161 706.950806,391.093048  z"
   id="path7" />
<path
   fill="#040404"
   opacity="1.000000"
   stroke="none"
   d=" M528.095215,445.008118   C525.895874,444.943054 523.989075,445.612091 524.003479,442.516602   C524.103577,421.042206 524.056274,399.567139 524.056274,377.825867   C527.120300,377.825867 529.889709,377.825867 532.960938,377.825867   C533.398987,381.066010 533.839966,384.328186 534.219788,387.137512   C538.379395,384.473785 542.376709,380.847382 547.068542,379.204010   C551.929810,377.501343 557.464355,377.720947 563.124878,377.049896   C563.124878,380.896271 563.124878,383.965057 563.124878,387.852081   C560.586609,387.852081 557.990051,387.743500 555.405151,387.871063   C544.751892,388.396698 537.404175,394.023926 536.151672,404.536041   C534.916748,414.900696 535.305969,425.460449 535.021484,435.935669   C534.945068,438.751221 535.010010,441.570648 535.010010,445.008148   C532.751709,445.008148 530.661804,445.008148 528.095215,445.008118  z"
   id="path8" />
<path
   fill="#060606"
   opacity="1.000000"
   stroke="none"
   d=" M580.895508,418.999939   C580.895508,405.021393 580.895508,391.542847 580.895508,377.808411   C584.583740,377.808411 588.001648,377.808411 591.630859,377.808411   C591.630859,400.137390 591.630859,422.223755 591.630859,444.661438   C588.250244,444.661438 584.861633,444.661438 580.895508,444.661438   C580.895508,436.352448 580.895508,427.926208 580.895508,418.999939  z"
   id="path9" />
<path
   fill="#FB9924"
   opacity="1.000000"
   stroke="none"
   d=" M197.580444,315.538971   C190.718491,321.698303 183.686615,322.885895 176.774094,319.281525   C170.513962,316.017303 166.883255,309.263885 167.686050,302.376862   C168.544388,295.013458 173.368744,289.424683 180.521576,287.507660   C187.350906,285.677368 194.819138,288.505310 198.900604,294.467072   C203.333847,300.942657 202.976303,307.838928 197.580444,315.538971  M178.007370,309.357422   C180.678925,312.406036 184.136826,313.999359 187.698685,311.880798   C189.979797,310.524017 192.130447,307.863586 192.920334,305.342834   C194.051941,301.731537 192.360001,297.845123 188.655869,296.900787   C185.700134,296.147186 181.583069,296.482239 179.117798,298.083466   C175.416290,300.487701 175.264328,304.755249 178.007370,309.357422  z"
   id="path10"
   style="fill:#e23124;fill-opacity:1" />
<path
   fill="#FB9924"
   opacity="1.000000"
   stroke="none"
   d=" M56.013447,309.939636   C59.269463,301.884216 65.175179,298.429871 71.934341,300.287567   C78.154297,301.997070 82.185921,308.013000 81.318314,314.290222   C80.344307,321.337250 74.125778,326.346924 67.329491,325.559662   C59.701157,324.676056 55.433491,318.951385 56.013447,309.939636  M64.438828,311.746979   C64.192482,314.907867 65.580009,317.060028 68.789757,316.778809   C70.170319,316.657837 72.166077,314.979645 72.478104,313.673492   C72.785294,312.387573 71.386703,309.442108 70.610924,309.397247   C68.702843,309.286865 66.722534,310.425049 64.438828,311.746979  z"
   id="path11"
   style="fill:#e23124;fill-opacity:1" />
<path
   fill="#060606"
   opacity="1.000000"
   stroke="none"
   d=" M583.811035,349.713318   C588.360779,348.798737 592.295288,349.724823 593.781921,353.783844   C594.738953,356.396912 594.526306,360.085907 593.395935,362.659424   C591.824402,366.237518 587.934753,366.684113 584.278992,366.048767   C580.396545,365.374084 578.028381,362.946991 577.639221,359.013672   C577.197876,354.553406 578.873840,351.221954 583.811035,349.713318  z"
   id="path12" />
<path
   fill="#FB9D2D"
   opacity="1.000000"
   stroke="none"
   d=" M90.986786,323.843964   C89.365479,320.826019 90.074944,318.419067 92.806946,317.568207   C94.234421,317.123657 96.760056,317.970062 97.766983,319.125031   C98.557732,320.032043 98.188812,323.563019 97.623688,323.747406   C95.648529,324.391602 93.364876,324.090057 90.986786,323.843964  z"
   id="path13"
   style="fill:#e23124;fill-opacity:1" />
<path
   fill="#FB9D2D"
   opacity="1.000000"
   stroke="none"
   d=" M225.290100,317.471130   C228.358841,319.965942 228.546753,322.806366 225.687897,324.612854   C224.456573,325.390930 221.029938,324.556976 219.927643,323.295654   C217.511673,320.531158 220.228836,317.421753 225.290100,317.471130  z"
   id="path14"
   style="fill:#e23124;fill-opacity:1" />
<path
   fill="#FB9D2D"
   opacity="1.000000"
   stroke="none"
   d=" M107.636810,302.546997   C110.082649,299.212738 112.917885,298.784515 114.923210,301.943939   C115.694481,303.159119 114.877327,306.532806 113.638008,307.637939   C110.930626,310.052216 107.842010,307.543671 107.636810,302.546997  z"
   id="path15"
   style="fill:#e23124;fill-opacity:1" />
<path
   fill="#FB9924"
   opacity="1.000000"
   stroke="none"
   d=" M143.136780,314.133118   C145.337601,314.007233 147.595490,313.624207 149.038361,314.533905   C149.853912,315.048065 149.908234,317.996094 149.227036,319.272186   C148.676132,320.304260 146.317505,321.211670 145.101639,320.889191   C141.618103,319.965302 141.000168,317.487335 143.136780,314.133118  z"
   id="path16"
   style="fill:#e23124;fill-opacity:1" />












<path
   fill="#FB9924"
   opacity="1.000000"
   stroke="none"
   d=" M154.846893,423.861633   C154.847351,417.052917 154.953278,410.724945 154.810623,404.402588   C154.718384,400.315247 156.518906,398.611389 160.523453,398.823761   C163.013458,398.955780 165.517578,398.794220 168.012711,398.862030   C177.078430,399.108337 184.457809,406.393616 184.786102,415.374939   C185.115326,424.381226 177.724060,432.375092 168.489090,432.953400   C166.830536,433.057281 165.161285,433.000854 163.496979,433.001099   C154.890442,433.002380 154.855698,432.965637 154.846893,423.861633  M175.609909,418.697266   C176.695953,410.214813 172.341995,406.198395 163.537994,407.712616   C163.537994,413.195221 163.537994,418.695770 163.537994,424.473907   C168.580170,424.670105 172.860474,424.274780 175.609909,418.697266  z"
   id="path29"
   style="fill:#e23124;fill-opacity:1" />
<path
   fill="#FB9924"
   opacity="1.000000"
   stroke="none"
   d=" M133.736328,424.468262   C134.489899,424.416382 134.839706,424.472198 135.151550,424.387756   C137.236328,423.823395 139.313034,423.229126 141.392334,422.644501   C139.565781,421.759125 137.570892,421.102722 135.962585,419.920471   C134.514755,418.856110 132.551544,417.217712 132.547775,415.827789   C132.544098,414.475861 134.576447,412.900940 136.013199,411.820892   C137.595657,410.631226 139.518112,409.893799 141.292450,408.959351   C139.231110,408.356903 137.199402,407.417114 135.101334,407.232849   C132.113205,406.970398 129.089203,406.883392 129.062973,402.998291   C129.036621,399.090271 132.001678,398.696320 135.049652,398.856201   C137.853928,399.003204 140.804398,398.727844 143.424637,399.518951   C148.634201,401.091858 151.106308,406.799438 149.909500,412.505127   C149.472672,414.587616 149.392105,416.936493 149.884079,418.987518   C151.604462,426.159729 147.130890,432.529419 139.720200,432.979340   C137.898727,433.089935 135.903946,433.454865 134.278748,432.881378   C132.365128,432.206146 129.825882,430.983124 129.236664,429.380432   C128.159241,426.449860 130.465973,424.928070 133.736328,424.468262  z"
   id="path30"
   style="fill:#e23124;fill-opacity:1" />
<path
   fill="#FB9D2D"
   opacity="1.000000"
   stroke="none"
   d=" M71.499969,438.608032   C73.564583,441.373291 73.326981,443.825714 70.606209,445.132416   C69.323318,445.748566 66.769218,445.422760 65.789978,444.482971   C64.826363,443.558197 64.446976,441.023346 65.012199,439.713135   C66.228157,436.894531 68.691399,436.723877 71.499969,438.608032  z"
   id="path31"
   style="fill:#e23124;fill-opacity:1" />
<path
   fill="#FB9D2D"
   opacity="1.000000"
   stroke="none"
   d=" M83.268539,420.641846   C86.370789,423.060425 86.820877,425.823792 83.761002,427.667572   C82.482971,428.437683 79.716263,427.319397 77.969208,426.404907   C77.379257,426.096100 77.266502,423.121643 77.955513,422.505066   C79.215569,421.377472 81.235130,421.098633 83.268539,420.641846  z"
   id="path32"
   style="fill:#e23124;fill-opacity:1" />
<path
   fill="#FB9D2D"
   opacity="1.000000"
   stroke="none"
   d=" M66.157425,403.526184   C66.865944,405.734680 67.864868,407.908508 67.383942,409.680725   C67.157043,410.516846 63.840618,411.287506 62.392517,410.772003   C61.256924,410.367737 60.072506,407.833923 60.266224,406.433868   C60.670399,403.512848 62.929752,402.496765 66.157425,403.526184  z"
   id="path33"
   style="fill:#e23124;fill-opacity:1" />

</svg>
